<svg width="18" height="19" viewBox="0 0 18 19" fill="none" xmlns="http://www.w3.org/2000/svg">
<path d="M17.9851 1.00914L17.5751 4.00214C16.5091 3.92014 15.7301 4.13881 15.2381 4.65814C14.7461 5.17747 14.4454 5.87447 14.3361 6.74914C14.2267 7.62381 14.1994 8.56681 14.2541 9.57814H17.9851V18.2291H10.9741V7.93814C10.9741 5.42347 11.6027 3.53747 12.8601 2.28014C14.1447 1.02281 15.8531 0.59914 17.9851 1.00914ZM7.57106 1.00914L7.16106 4.00214C6.09506 3.92014 5.31606 4.13881 4.82406 4.65814C4.33206 5.17747 4.03139 5.87447 3.92206 6.74914C3.81273 7.62381 3.78539 8.56681 3.84006 9.57814H7.57106V18.2291H0.560059V7.93814C0.560059 5.42347 1.18873 3.53747 2.44606 2.28014C3.73073 1.02281 5.43906 0.59914 7.57106 1.00914Z" fill="white"/>
</svg>
