<svg width="32" height="32" viewBox="0 0 32 32" fill="none" xmlns="http://www.w3.org/2000/svg">
<path d="M27.2998 31.2H22.1997V29.7H27.2998C28.6998 29.7 29.7998 28.6 29.7998 27.2V4.70013C29.7998 3.30013 28.6998 2.20013 27.2998 2.20013H4.69984C3.29984 2.20013 2.19984 3.30013 2.19984 4.70013V27.3001C2.19984 28.7001 3.29984 29.8001 4.69984 29.8001H9.8V31.3001H4.69984C2.49984 31.3001 0.699841 29.5001 0.699841 27.3001V4.70013C0.699841 2.50013 2.49984 0.700134 4.69984 0.700134H27.2998C29.4998 0.700134 31.2998 2.50013 31.2998 4.70013V27.3001C31.2998 29.5001 29.4998 31.2003 27.2998 31.2003V31.2Z" fill="black"/>
<path d="M15.2998 15.2998H16.7998V30.4998H15.2998V15.2998Z" fill="black"/>
<path d="M24.2 16H7.8L16 7.79999L24.2 16ZM11.4 14.5H20.6L16 9.89999L11.4 14.5Z" fill="black"/>
</svg>
