<svg width="44" height="28" viewBox="0 0 44 28" fill="none" xmlns="http://www.w3.org/2000/svg">
<path d="M29.9277 0.717487C26.9412 0.717487 24.0571 1.73271 21.7392 3.5889C19.5236 1.98069 16.8678 1.11102 14.0793 1.11102C12.7514 1.11102 11.4361 1.31047 10.1693 1.7058L9.60863 1.8801L9.66793 2.46406C9.72003 2.98156 9.54035 3.49548 9.17559 3.86564C9.03004 4.01119 8.86114 4.12619 8.67428 4.20525L7.8046 4.57361L8.39037 5.31393C9.11091 6.22496 9.03722 7.52768 8.21967 8.34524C7.79022 8.77469 7.22059 9.01008 6.61325 9.01008C6.10114 9.01008 5.59983 8.83578 5.20092 8.51774L4.49656 7.9553L4.10485 8.76927C4.00781 8.97231 3.88563 9.14661 3.74188 9.29215C3.36993 9.6641 2.8596 9.84737 2.34031 9.79346L1.75634 9.73416L1.58204 10.2948C0.130185 14.9523 1.3718 19.9944 4.82002 23.4531C7.29073 25.9238 10.5774 27.284 14.0738 27.284C17.089 27.284 19.9462 26.2706 22.2586 24.409C24.5047 26.0334 27.1424 26.8887 29.9259 26.8887C37.1405 26.8887 43.0088 21.0182 43.0088 13.804C43.0124 6.58753 37.1419 0.717468 29.9273 0.717468L29.9277 0.717487ZM5.84068 22.4364C2.89382 19.4805 1.75818 15.2273 2.81295 11.2239C3.5479 11.1556 4.23068 10.8358 4.76257 10.3057C4.83804 10.2302 4.90992 10.1494 4.98 10.0649C5.48673 10.3147 6.04913 10.4476 6.61875 10.4476C7.6088 10.4476 8.53961 10.0613 9.24038 9.36051C10.3796 8.22128 10.6347 6.5035 9.95016 5.10193C10.0364 5.03185 10.1209 4.95818 10.1999 4.87732C10.7228 4.34546 11.0373 3.65905 11.1037 2.93308C12.0741 2.67792 13.0731 2.54855 14.0812 2.54855C17.1898 2.54855 20.1132 3.75964 22.3143 5.96083C26.8568 10.5033 26.8568 17.8923 22.3143 22.4343C20.1149 24.6337 17.1894 25.8448 14.0775 25.8448C10.9635 25.8448 8.03815 24.6337 5.84073 22.4361L5.84068 22.4364ZM29.9277 25.4498C27.5558 25.4498 25.3024 24.749 23.3584 23.4211C28.429 18.316 28.4202 10.0378 23.3278 4.94562C23.1841 4.80007 23.035 4.65992 22.8858 4.52336C24.9055 2.99422 27.3744 2.15689 29.928 2.15689C36.35 2.15689 41.5733 7.38203 41.5733 13.8041C41.5751 20.2243 36.35 25.4494 29.928 25.4494L29.9277 25.4498Z" fill="black"/>
<path d="M14.8521 10.2353C15.4702 10.2353 16.0506 9.99455 16.4854 9.55969C16.9239 9.12844 17.1665 8.54985 17.1701 7.93171C17.1719 7.30818 16.9311 6.72241 16.4854 6.27676C16.047 5.84551 15.4666 5.60834 14.8521 5.60834C14.2376 5.60834 13.6571 5.84553 13.2097 6.28578C12.3167 7.19322 12.3185 8.66126 13.2133 9.5579C13.6518 9.99454 14.234 10.2353 14.8521 10.2353H14.8521ZM14.2268 7.29925C14.3939 7.13394 14.6167 7.04409 14.8521 7.04409C15.0875 7.04409 15.3103 7.13573 15.4738 7.29566C15.6427 7.46457 15.7344 7.68738 15.7326 7.92457C15.7308 8.15637 15.6409 8.37379 15.4738 8.53908C15.1396 8.8733 14.5664 8.8733 14.2304 8.53908C13.8908 8.19948 13.8926 7.63886 14.2268 7.29925L14.2268 7.29925Z" fill="black"/>
<path d="M5.82457 12.6541C5.20642 12.6541 4.62604 12.8948 4.18223 13.3387C3.29636 14.2389 3.29636 15.7051 4.18583 16.6108C4.62426 17.0492 5.20647 17.2918 5.82458 17.2918C6.44268 17.2918 7.02311 17.0492 7.46333 16.6108C8.36713 15.707 8.36713 14.2371 7.46333 13.3351C7.02309 12.8966 6.44268 12.6541 5.82458 12.6541H5.82457ZM6.44631 15.5955C6.11209 15.9297 5.53348 15.9261 5.20826 15.5991C4.86865 15.2541 4.86865 14.6935 5.20467 14.3521C5.37178 14.185 5.59279 14.0934 5.8264 14.0934C6.06 14.0934 6.28101 14.185 6.44814 14.3521C6.79494 14.7007 6.79494 15.2469 6.44634 15.5955L6.44631 15.5955Z" fill="black"/>
<path d="M14.7173 19.5811C15.3354 19.5811 15.9158 19.3386 16.3596 18.8965C17.2455 17.9963 17.2455 16.5301 16.3506 15.6208C15.9122 15.1896 15.3318 14.9524 14.7173 14.9524C14.1028 14.9524 13.5223 15.1896 13.0785 15.6244C12.1747 16.5282 12.1747 17.9963 13.0785 18.9001C13.5188 19.3403 14.101 19.5811 14.7173 19.5811H14.7173ZM14.092 16.6468C14.2591 16.4815 14.4819 16.3917 14.7173 16.3917C14.9527 16.3917 15.1755 16.4833 15.3354 16.6397C15.675 16.9847 15.675 17.5453 15.339 17.8867C15.0048 18.2209 14.4316 18.2209 14.0956 17.8867C13.7488 17.5363 13.7488 16.99 14.092 16.6468L14.092 16.6468Z" fill="black"/>
<path d="M19.5547 10.0054C18.9365 10.0054 18.3561 10.2479 17.9213 10.681C17.4829 11.1123 17.2403 11.6909 17.2367 12.309C17.2349 12.9325 17.4757 13.5183 17.9213 13.9639C18.3597 14.3952 18.9401 14.6324 19.5547 14.6324C20.1692 14.6324 20.7496 14.3952 21.1934 13.9604C21.6354 13.5183 21.8762 12.9325 21.8744 12.3091C21.8708 11.6909 21.6283 11.1123 21.1934 10.6847C20.755 10.2463 20.1728 10.0055 19.5547 10.0055V10.0054ZM20.1818 12.9415C19.8458 13.2721 19.2618 13.2667 18.9348 12.9451C18.7659 12.7761 18.6742 12.5533 18.676 12.3161C18.6778 12.0843 18.7677 11.8669 18.9348 11.7016C19.1019 11.5345 19.3229 11.4429 19.5565 11.4429C19.7901 11.4429 20.0111 11.5345 20.1818 11.707C20.3453 11.8687 20.4352 12.0844 20.437 12.3161C20.437 12.5533 20.3453 12.7761 20.1818 12.9415L20.1818 12.9415Z" fill="black"/>
<path d="M15.2619 19.7716C14.6438 19.7716 14.0634 20.0124 13.6232 20.4526C13.1848 20.8911 12.9422 21.4733 12.9422 22.0914C12.9422 22.7095 13.1847 23.2899 13.6268 23.7337C14.0652 24.165 14.6456 24.4021 15.2602 24.4021C15.8747 24.4021 16.4551 24.1649 16.9025 23.7247C17.7884 22.8245 17.7884 21.3582 16.8989 20.4526C16.4623 20.0141 15.8801 19.7715 15.2619 19.7715L15.2619 19.7716ZM15.8891 22.7077C15.5531 23.0383 14.9691 23.0329 14.6421 22.7113C14.4749 22.5442 14.3833 22.3231 14.3833 22.0895C14.3833 21.8559 14.4749 21.6349 14.6421 21.4678C14.8092 21.3007 15.0302 21.2091 15.2638 21.2091C15.4974 21.2091 15.7184 21.3007 15.8819 21.4642C16.2198 21.8092 16.2198 22.3716 15.8891 22.7076L15.8891 22.7077Z" fill="black"/>
<path d="M30.1112 8.87327C30.9971 7.97305 30.9971 6.5068 30.1022 5.59756C29.6638 5.16631 29.0834 4.92914 28.4688 4.92914C27.8543 4.92914 27.2739 5.16632 26.8301 5.60115C25.9263 6.50496 25.9263 7.973 26.8301 8.87686C27.2685 9.31529 27.8507 9.55789 28.4688 9.55789C29.0869 9.55789 29.6692 9.31531 30.1112 8.87327H30.1112ZM27.8435 6.6218C28.0106 6.45648 28.2335 6.36664 28.4689 6.36664C28.7043 6.36664 28.9271 6.45828 29.087 6.61461C29.4266 6.95961 29.4266 7.52026 29.0906 7.86162C28.7564 8.19584 28.1832 8.19584 27.8472 7.86162C27.5004 7.51303 27.5004 6.96679 27.8436 6.62179L27.8435 6.6218Z" fill="black"/>
<path d="M37.8861 12.5896C37.4513 12.1476 36.8709 11.905 36.2474 11.905C35.6274 11.905 35.0435 12.1476 34.6014 12.5896C33.7156 13.4899 33.7156 14.9561 34.6104 15.8654C35.0489 16.2966 35.6311 16.5338 36.2474 16.5338C36.8673 16.5338 37.4477 16.2948 37.8807 15.8618C38.3192 15.4233 38.5618 14.8411 38.5618 14.223C38.5636 13.6067 38.321 13.0245 37.8861 12.5896H37.8861ZM36.8655 14.8447C36.5384 15.1717 35.9437 15.161 35.6274 14.8483C35.2878 14.5033 35.2878 13.9427 35.6238 13.6013C35.7909 13.4342 36.0138 13.3425 36.2492 13.3425C36.4827 13.3425 36.7002 13.4342 36.8673 13.6013C37.0344 13.7684 37.1261 13.9894 37.1261 14.223C37.1261 14.4566 37.0326 14.6776 36.8655 14.8448L36.8655 14.8447Z" fill="black"/>
<path d="M30.4617 18.2909C29.8472 18.2909 29.2668 18.5281 28.8194 18.9683C27.9335 19.8686 27.9335 21.3348 28.8248 22.2405C29.2632 22.6789 29.8454 22.9215 30.4635 22.9215C31.0816 22.9215 31.662 22.6789 32.1023 22.2405C33.0061 21.3366 33.0061 19.8668 32.0987 18.9594C31.6584 18.5281 31.078 18.2909 30.4617 18.2909L30.4617 18.2909ZM31.0834 21.2234C30.7492 21.5576 30.1706 21.554 29.8454 21.227C29.5058 20.882 29.5058 20.3213 29.8364 19.9836C30.0035 19.8183 30.2263 19.7284 30.4617 19.7284C30.6971 19.7284 30.9199 19.8182 31.0835 19.98C31.4321 20.3286 31.4321 20.8748 31.0835 21.2234H31.0834Z" fill="black"/>
<path d="M31.2269 14.8249C32.1307 13.921 32.1307 12.4512 31.2269 11.5492C30.7939 11.1161 30.2135 10.8771 29.5935 10.8771C28.9736 10.8771 28.395 11.1161 27.9602 11.5492C27.5217 11.9876 27.2791 12.5698 27.2791 13.1879C27.2791 13.806 27.5217 14.3864 27.9548 14.8213C28.3896 15.2633 28.97 15.5059 29.5918 15.5059C30.2153 15.5041 30.7975 15.2615 31.2269 14.8249ZM28.7185 13.1861C28.7185 12.9525 28.8101 12.7315 28.9772 12.5644C29.139 12.4027 29.3582 12.3128 29.5935 12.3128C29.8289 12.3128 30.0482 12.4026 30.2099 12.5644C30.5584 12.913 30.5584 13.4592 30.2063 13.8114C29.8828 14.1402 29.3096 14.1456 28.9772 13.8078C28.8101 13.6407 28.7184 13.4197 28.7184 13.1861L28.7185 13.1861Z" fill="black"/>
</svg>
