<svg width="36" height="42" viewBox="0 0 36 42" fill="none" xmlns="http://www.w3.org/2000/svg">
<path fill-rule="evenodd" clip-rule="evenodd" d="M11.9519 18.2686H24.0485V28.5486H11.9519V18.2686ZM13.756 20.0726H22.2444V26.7445H13.756V20.0726Z" fill="black"/>
<path d="M15.5726 18.1305V19.0326H13.7685V15.7622C13.7685 14.6392 14.2141 13.5629 15.0065 12.7686C15.8008 11.9762 16.8789 11.5288 18.0001 11.5288C19.1214 11.5288 20.1995 11.9762 20.9937 12.7686C21.7862 13.5629 22.2318 14.6392 22.2318 15.7622V19.0326H20.4277V15.7622C20.4277 15.119 20.1725 14.499 19.7179 14.0444C19.2615 13.5898 18.6434 13.3328 18.0001 13.3328C17.3568 13.3328 16.7387 13.5898 16.2823 14.0444C15.8276 14.499 15.5725 15.1189 15.5725 15.7622L15.5726 18.1305Z" fill="black"/>
<path d="M17.1931 1.95495L16.6451 1.23799L18.0772 0.141907L18.6252 0.857069C19.0709 1.43745 19.5399 1.9981 20.0358 2.53533C20.5515 3.09777 21.087 3.6386 21.6458 4.1561C22.2262 4.69696 22.8245 5.21805 23.4408 5.71757C24.0823 6.23686 24.7382 6.73637 25.4102 7.21616C26.1056 7.71387 26.8154 8.19186 27.5359 8.65007C28.2816 9.12442 29.0363 9.58262 29.8054 10.0211C30.5942 10.4721 31.3938 10.9088 32.2006 11.3256C33.205 11.8449 34.222 12.3426 35.2481 12.8152C35.2247 13.6526 35.1708 14.4863 35.0846 15.3201C35.0163 15.9813 34.93 16.6408 34.8276 17.2966C34.6102 18.682 34.3227 20.0548 33.9669 21.4115C33.5985 22.8292 33.1565 24.2254 32.6444 25.5964C32.1269 26.9926 31.5303 28.3546 30.8565 29.6825C30.5205 30.3438 30.1629 30.9942 29.7856 31.6321C29.4118 32.2664 29.0147 32.8864 28.5961 33.4919C28.181 34.0903 27.7443 34.6742 27.2843 35.2385C26.8297 35.7955 26.35 36.3328 25.8486 36.8485C25.3509 37.3588 24.8316 37.8422 24.2872 38.3003C23.7481 38.7549 23.1839 39.1772 22.5981 39.5671C22.0141 39.957 21.4068 40.3092 20.7815 40.6255C20.1508 40.9417 19.5021 41.2167 18.8354 41.4467L17.9837 41.7414L17.3943 40.0361L18.2461 39.7415C18.8354 39.5384 19.4123 39.294 19.9711 39.0137C20.5317 38.7316 21.0743 38.4154 21.5973 38.0686C22.1273 37.7128 22.6377 37.3301 23.1264 36.9204C23.6241 36.5017 24.1021 36.0579 24.5549 35.5907C25.0203 35.1127 25.4642 34.615 25.8846 34.0975C26.3159 33.571 26.7237 33.0266 27.1119 32.4659C27.5072 31.8963 27.881 31.3105 28.2331 30.714C28.5925 30.1084 28.9303 29.4921 29.2484 28.865C29.8898 27.6 30.4612 26.2991 30.9554 24.9676C31.4459 23.6522 31.8682 22.3136 32.2222 20.9569C32.5618 19.6578 32.8367 18.3425 33.0452 17.0164C33.144 16.391 33.2248 15.7639 33.2895 15.1332C33.3309 14.7343 33.365 14.3354 33.3902 13.9347C32.7127 13.6094 32.0407 13.2734 31.3723 12.9266C30.5421 12.499 29.7191 12.0516 28.9087 11.5862C28.1163 11.1333 27.3365 10.6626 26.5674 10.172C25.8181 9.69583 25.0832 9.1999 24.3609 8.6842C23.6601 8.18289 22.9755 7.66176 22.3052 7.11914C21.6565 6.59446 21.0277 6.04463 20.4167 5.4768C19.8237 4.92696 19.2541 4.35196 18.7079 3.75718C18.176 3.1786 17.6711 2.57664 17.1931 1.9549L17.1931 1.95495Z" fill="black"/>
<path d="M17.7539 39.7413L18.6056 40.036L18.0163 41.7412L17.1645 41.4466C16.4979 41.2166 15.8492 40.9416 15.2185 40.6254C14.5932 40.3091 13.9858 39.9569 13.4019 39.567C12.8161 39.1771 12.2519 38.7548 11.7128 38.3002C11.1683 37.842 10.6491 37.3586 10.1513 36.8484C9.65002 36.3326 9.17024 35.7954 8.71563 35.2384C8.25563 34.6741 7.81899 34.0901 7.40389 33.4918C6.98522 32.8862 6.58812 32.2663 6.21438 31.632C5.83703 30.9941 5.47943 30.3436 5.14345 29.6824C4.46964 28.3545 3.87307 26.9924 3.35557 25.5963C2.84345 24.2253 2.40143 22.8291 2.03307 21.4114C1.67728 20.0547 1.3898 18.6819 1.17236 17.2965C1.06994 16.6406 0.983686 15.9812 0.915408 15.3199C0.829158 14.4862 0.775251 13.6524 0.751892 12.8151C1.78151 12.3408 2.80032 11.843 3.81016 11.3237C4.62413 10.905 5.43092 10.4702 6.22695 10.0192C7.005 9.57894 7.77048 9.12255 8.52516 8.64815C9.2583 8.18815 9.97885 7.70837 10.6868 7.21244C11.3678 6.73087 12.0362 6.23136 12.6867 5.71206C13.3139 5.21434 13.923 4.69325 14.5124 4.15239C15.0766 3.63489 15.6192 3.09402 16.1404 2.53162C16.6381 1.99614 17.1107 1.43733 17.5545 0.856946L18.1043 0.141785L19.5347 1.23967L18.9866 1.95483C18.5068 2.57836 17.9984 3.18211 17.4629 3.7607C16.9094 4.35727 16.3309 4.93227 15.7325 5.48211C15.1107 6.05172 14.4711 6.59798 13.8116 7.12265C13.1306 7.66531 12.4352 8.1864 11.7236 8.68771C10.9905 9.20162 10.2448 9.69755 9.48472 10.1755C8.70667 10.6643 7.91602 11.135 7.11645 11.5897C6.29889 12.0515 5.47053 12.4989 4.63319 12.9284C3.96297 13.2734 3.28911 13.6094 2.60992 13.9346C2.63508 14.3353 2.66922 14.7342 2.71055 15.1331C2.77523 15.7638 2.8561 16.391 2.95492 17.0163C3.16336 18.3424 3.43829 19.6577 3.77791 20.9568C4.13189 22.3135 4.55416 23.6522 5.0447 24.9675C5.53884 26.2989 6.11025 27.5999 6.75172 28.8649C7.06977 29.492 7.40759 30.1083 7.76694 30.7139C8.11912 31.3105 8.49287 31.8962 8.88819 32.4658C9.27631 33.0265 9.68422 33.5709 10.1155 34.0974C10.5359 34.6149 10.9798 35.1126 11.4451 35.5906C11.898 36.0578 12.3759 36.5016 12.8737 36.9203C13.3624 37.33 13.8727 37.7127 14.4028 38.0685C14.9257 38.4153 15.4684 38.7315 16.029 39.0137C16.5878 39.294 17.1646 39.5383 17.754 39.7414L17.7539 39.7413Z" fill="black"/>
</svg>
